<svg width="108" height="108" xmlns="http://www.w3.org/2000/svg" viewBox="0 0 108 108" color="#000000"><g opacity=".38"><circle cx="31.95" cy="31.95" r="1.95" fill="currentColor"/><circle cx="36.85" cy="31.95" r="1.95" fill="currentColor"/><circle cx="41.75" cy="31.95" r="1.95" fill="currentColor"/><circle cx="46.65" cy="31.95" r="1.95" fill="currentColor"/><circle cx="51.55" cy="31.95" r="1.95" fill="currentColor"/><circle cx="56.45" cy="31.95" r="1.95" fill="currentColor"/><circle cx="61.35" cy="31.95" r="1.95" fill="currentColor"/><circle cx="66.25" cy="31.95" r="1.95" fill="currentColor"/><circle cx="71.15" cy="31.95" r="1.95" fill="currentColor"/><circle cx="76.05" cy="31.95" r="1.95" fill="currentColor"/><circle cx="31.95" cy="36.85" r="1.95" fill="currentColor"/><circle cx="36.85" cy="36.85" r="1.95" fill="currentColor"/><circle cx="41.75" cy="36.85" r="1.95" fill="currentColor"/><circle cx="46.65" cy="36.85" r="1.95" fill="currentColor"/><circle cx="51.55" cy="36.85" r="1.95" fill="currentColor"/><circle cx="56.45" cy="36.85" r="1.95" fill="currentColor"/><circle cx="61.35" cy="36.85" r="1.95" fill="currentColor"/><circle cx="66.25" cy="36.85" r="1.95" fill="currentColor"/><circle cx="71.15" cy="36.85" r="1.95" fill="currentColor"/><circle cx="76.05" cy="36.85" r="1.95" fill="currentColor"/><circle cx="31.95" cy="41.75" r="1.95" fill="currentColor"/><circle cx="36.85" cy="41.75" r="1.95" fill="currentColor"/><circle cx="41.75" cy="41.75" r="1.95" fill="currentColor"/><circle cx="46.65" cy="41.75" r="1.95" fill="currentColor"/><circle cx="51.55" cy="41.75" r="1.95" fill="currentColor"/><circle cx="56.45" cy="41.75" r="1.95" fill="currentColor"/><circle cx="61.35" cy="41.75" r="1.95" fill="currentColor"/><circle cx="66.25" cy="41.75" r="1.95" fill="currentColor"/><circle cx="71.15" cy="41.75" r="1.95" fill="currentColor"/><circle cx="76.05" cy="41.75" r="1.95" fill="currentColor"/><circle cx="31.95" cy="46.65" r="1.95" fill="currentColor"/><circle cx="36.85" cy="46.65" r="1.95" fill="currentColor"/><circle cx="41.75" cy="46.65" r="1.95" fill="currentColor"/><circle cx="46.65" cy="46.65" r="1.95" fill="currentColor"/><circle cx="51.55" cy="46.65" r="1.95" fill="currentColor"/><circle cx="56.45" cy="46.65" r="1.95" fill="currentColor"/><circle cx="61.35" cy="46.65" r="1.95" fill="currentColor"/><circle cx="66.25" cy="46.65" r="1.95" fill="currentColor"/><circle cx="71.15" cy="46.65" r="1.95" fill="currentColor"/><circle cx="76.05" cy="46.65" r="1.95" fill="currentColor"/><circle cx="31.95" cy="51.55" r="1.95" fill="currentColor"/><circle cx="36.85" cy="51.55" r="1.95" fill="currentColor"/><circle cx="41.75" cy="51.55" r="1.95" fill="currentColor"/><circle cx="46.65" cy="51.55" r="1.95" fill="currentColor"/><circle cx="51.55" cy="51.55" r="1.95" fill="currentColor"/><circle cx="56.45" cy="51.55" r="1.95" fill="currentColor"/><circle cx="61.35" cy="51.55" r="1.95" fill="currentColor"/><circle cx="66.25" cy="51.55" r="1.95" fill="currentColor"/><circle cx="71.15" cy="51.55" r="1.95" fill="currentColor"/><circle cx="76.05" cy="51.55" r="1.95" fill="currentColor"/><circle cx="31.95" cy="56.45" r="1.95" fill="currentColor"/><circle cx="36.85" cy="56.45" r="1.95" fill="currentColor"/><circle cx="41.75" cy="56.45" r="1.95" fill="currentColor"/><circle cx="46.65" cy="56.45" r="1.95" fill="currentColor"/><circle cx="51.55" cy="56.45" r="1.95" fill="currentColor"/><circle cx="56.45" cy="56.45" r="1.95" fill="currentColor"/><circle cx="61.35" cy="56.45" r="1.95" fill="currentColor"/><circle cx="66.25" cy="56.45" r="1.95" fill="currentColor"/><circle cx="71.15" cy="56.45" r="1.95" fill="currentColor"/><circle cx="76.05" cy="56.45" r="1.95" fill="currentColor"/><circle cx="31.95" cy="61.35" r="1.95" fill="currentColor"/><circle cx="36.85" cy="61.35" r="1.95" fill="currentColor"/><circle cx="41.75" cy="61.35" r="1.95" fill="currentColor"/><circle cx="46.65" cy="61.35" r="1.95" fill="currentColor"/><circle cx="51.55" cy="61.35" r="1.95" fill="currentColor"/><circle cx="56.45" cy="61.35" r="1.95" fill="currentColor"/><circle cx="61.35" cy="61.35" r="1.95" fill="currentColor"/><circle cx="66.25" cy="61.35" r="1.95" fill="currentColor"/><circle cx="71.15" cy="61.35" r="1.95" fill="currentColor"/><circle cx="76.05" cy="61.35" r="1.95" fill="currentColor"/><circle cx="31.95" cy="66.25" r="1.95" fill="currentColor"/><circle cx="36.85" cy="66.25" r="1.95" fill="currentColor"/><circle cx="41.75" cy="66.25" r="1.95" fill="currentColor"/><circle cx="46.65" cy="66.25" r="1.95" fill="currentColor"/><circle cx="51.55" cy="66.25" r="1.95" fill="currentColor"/><circle cx="56.45" cy="66.25" r="1.95" fill="currentColor"/><circle cx="61.35" cy="66.25" r="1.95" fill="currentColor"/><circle cx="66.25" cy="66.25" r="1.95" fill="currentColor"/><circle cx="71.15" cy="66.25" r="1.95" fill="currentColor"/><circle cx="76.05" cy="66.25" r="1.95" fill="currentColor"/><circle cx="31.95" cy="71.15" r="1.95" fill="currentColor"/><circle cx="36.85" cy="71.15" r="1.95" fill="currentColor"/><circle cx="41.75" cy="71.15" r="1.95" fill="currentColor"/><circle cx="46.65" cy="71.15" r="1.95" fill="currentColor"/><circle cx="51.55" cy="71.15" r="1.95" fill="currentColor"/><circle cx="56.45" cy="71.15" r="1.95" fill="currentColor"/><circle cx="61.35" cy="71.15" r="1.95" fill="currentColor"/><circle cx="66.25" cy="71.15" r="1.95" fill="currentColor"/><circle cx="71.15" cy="71.15" r="1.95" fill="currentColor"/><circle cx="76.05" cy="71.15" r="1.95" fill="currentColor"/><circle cx="31.95" cy="76.05" r="1.95" fill="currentColor"/><circle cx="36.85" cy="76.05" r="1.95" fill="currentColor"/><circle cx="41.75" cy="76.05" r="1.95" fill="currentColor"/><circle cx="46.65" cy="76.05" r="1.95" fill="currentColor"/><circle cx="51.55" cy="76.05" r="1.95" fill="currentColor"/><circle cx="56.45" cy="76.05" r="1.95" fill="currentColor"/><circle cx="61.35" cy="76.05" r="1.95" fill="currentColor"/><circle cx="66.25" cy="76.05" r="1.95" fill="currentColor"/><circle cx="71.15" cy="76.05" r="1.95" fill="currentColor"/><circle cx="76.05" cy="76.05" r="1.95" fill="currentColor"/></g><circle cx="61.35" cy="46.65" r="2.9" fill="currentColor"/></svg>
