<svg width="108" height="108" xmlns="http://www.w3.org/2000/svg" viewBox="0 0 108 108"><defs><radialGradient id="fg"><stop offset="0" stop-color="#fffbd8"/><stop offset=".16" stop-color="#f6ef8e" stop-opacity=".95"/><stop offset=".42" stop-color="#ece56c" stop-opacity=".3"/><stop offset="1" stop-color="#ece56c" stop-opacity="0"/></radialGradient></defs><circle cx="37" cy="74" r="0.95" fill="#f2ec8a" opacity="0.16"/><circle cx="42.09" cy="77.16" r="0.95" fill="#f2ec8a" opacity="0.21"/><circle cx="47.94" cy="78.55" r="0.97" fill="#f2ec8a" opacity="0.25"/><circle cx="53.97" cy="78.53" r="0.99" fill="#f2ec8a" opacity="0.3"/><circle cx="59.81" cy="77.12" r="1.01" fill="#f2ec8a" opacity="0.35"/><circle cx="64.89" cy="73.93" r="1.05" fill="#f2ec8a" opacity="0.39"/><circle cx="67.78" cy="68.73" r="1.09" fill="#f2ec8a" opacity="0.44"/><circle cx="67.14" cy="62.85" r="1.15" fill="#f2ec8a" opacity="0.49"/><circle cx="62.98" cy="58.57" r="1.21" fill="#f2ec8a" opacity="0.53"/><circle cx="57.64" cy="55.78" r="1.27" fill="#f2ec8a" opacity="0.58"/><circle cx="52.07" cy="53.45" r="1.35" fill="#f2ec8a" opacity="0.63"/><circle cx="46.61" cy="50.89" r="1.44" fill="#f2ec8a" opacity="0.67"/><circle cx="41.88" cy="47.2" r="1.53" fill="#f2ec8a" opacity="0.72"/><circle cx="40.01" cy="41.61" r="1.63" fill="#f2ec8a" opacity="0.77"/><circle cx="42.2" cy="36.11" r="1.74" fill="#f2ec8a" opacity="0.81"/><circle cx="47.09" cy="32.66" r="1.85" fill="#f2ec8a" opacity="0.86"/><circle cx="52.89" cy="31.04" r="1.98" fill="#f2ec8a" opacity="0.91"/><circle cx="58.91" cy="30.83" r="2.11" fill="#f2ec8a" opacity="0.95"/><circle cx="64.81" cy="32.01" r="2.25" fill="#f2ec8a" opacity="1"/><circle cx="70" cy="35" r="19" fill="url(#fg)"/><circle cx="70" cy="35" r="4.5" fill="#fffce8"/></svg>
