<svg xmlns="http://www.w3.org/2000/svg" viewBox="0 0 24 24" width="24" height="24"><circle cx="2.2" cy="2.2" r="0.74" fill="rgba(236,235,230,.08)"/><circle cx="4.65" cy="2.2" r="0.74" fill="rgba(236,235,230,.08)"/><circle cx="7.1" cy="2.2" r="0.74" fill="rgba(236,235,230,.08)"/><circle cx="9.55" cy="2.2" r="0.74" fill="rgba(236,235,230,.08)"/><circle cx="14.45" cy="2.2" r="0.74" fill="rgba(236,235,230,.08)"/><circle cx="16.9" cy="2.2" r="0.74" fill="rgba(236,235,230,.08)"/><circle cx="19.35" cy="2.2" r="0.74" fill="rgba(236,235,230,.08)"/><circle cx="21.8" cy="2.2" r="0.74" fill="rgba(236,235,230,.08)"/><circle cx="2.2" cy="4.65" r="0.74" fill="rgba(236,235,230,.08)"/><circle cx="4.65" cy="4.65" r="0.74" fill="rgba(236,235,230,.08)"/><circle cx="7.1" cy="4.65" r="0.74" fill="rgba(236,235,230,.08)"/><circle cx="12" cy="4.65" r="0.74" fill="rgba(236,235,230,.08)"/><circle cx="16.9" cy="4.65" r="0.74" fill="rgba(236,235,230,.08)"/><circle cx="19.35" cy="4.65" r="0.74" fill="rgba(236,235,230,.08)"/><circle cx="21.8" cy="4.65" r="0.74" fill="rgba(236,235,230,.08)"/><circle cx="2.2" cy="7.1" r="0.74" fill="rgba(236,235,230,.08)"/><circle cx="4.65" cy="7.1" r="0.74" fill="rgba(236,235,230,.08)"/><circle cx="9.55" cy="7.1" r="0.74" fill="rgba(236,235,230,.08)"/><circle cx="12" cy="7.1" r="0.74" fill="rgba(236,235,230,.08)"/><circle cx="14.45" cy="7.1" r="0.74" fill="rgba(236,235,230,.08)"/><circle cx="19.35" cy="7.1" r="0.74" fill="rgba(236,235,230,.08)"/><circle cx="21.8" cy="7.1" r="0.74" fill="rgba(236,235,230,.08)"/><circle cx="2.2" cy="9.55" r="0.74" fill="rgba(236,235,230,.08)"/><circle cx="7.1" cy="9.55" r="0.74" fill="rgba(236,235,230,.08)"/><circle cx="9.55" cy="9.55" r="0.74" fill="rgba(236,235,230,.08)"/><circle cx="12" cy="9.55" r="0.74" fill="rgba(236,235,230,.08)"/><circle cx="14.45" cy="9.55" r="0.74" fill="rgba(236,235,230,.08)"/><circle cx="16.9" cy="9.55" r="0.74" fill="rgba(236,235,230,.08)"/><circle cx="21.8" cy="9.55" r="0.74" fill="rgba(236,235,230,.08)"/><circle cx="7.1" cy="12" r="0.74" fill="rgba(236,235,230,.08)"/><circle cx="9.55" cy="12" r="0.74" fill="rgba(236,235,230,.08)"/><circle cx="12" cy="12" r="0.74" fill="rgba(236,235,230,.08)"/><circle cx="14.45" cy="12" r="0.74" fill="rgba(236,235,230,.08)"/><circle cx="16.9" cy="12" r="0.74" fill="rgba(236,235,230,.08)"/><circle cx="2.2" cy="14.45" r="0.74" fill="rgba(236,235,230,.08)"/><circle cx="7.1" cy="14.45" r="0.74" fill="rgba(236,235,230,.08)"/><circle cx="9.55" cy="14.45" r="0.74" fill="rgba(236,235,230,.08)"/><circle cx="12" cy="14.45" r="0.74" fill="rgba(236,235,230,.08)"/><circle cx="14.45" cy="14.45" r="0.74" fill="rgba(236,235,230,.08)"/><circle cx="16.9" cy="14.45" r="0.74" fill="rgba(236,235,230,.08)"/><circle cx="21.8" cy="14.45" r="0.74" fill="rgba(236,235,230,.08)"/><circle cx="2.2" cy="16.9" r="0.74" fill="rgba(236,235,230,.08)"/><circle cx="7.1" cy="16.9" r="0.74" fill="rgba(236,235,230,.08)"/><circle cx="16.9" cy="16.9" r="0.74" fill="rgba(236,235,230,.08)"/><circle cx="21.8" cy="16.9" r="0.74" fill="rgba(236,235,230,.08)"/><circle cx="2.2" cy="19.35" r="0.74" fill="rgba(236,235,230,.08)"/><circle cx="7.1" cy="19.35" r="0.74" fill="rgba(236,235,230,.08)"/><circle cx="12" cy="19.35" r="0.74" fill="rgba(236,235,230,.08)"/><circle cx="16.9" cy="19.35" r="0.74" fill="rgba(236,235,230,.08)"/><circle cx="21.8" cy="19.35" r="0.74" fill="rgba(236,235,230,.08)"/><circle cx="2.2" cy="21.8" r="0.74" fill="rgba(236,235,230,.08)"/><circle cx="12" cy="21.8" r="0.74" fill="rgba(236,235,230,.08)"/><circle cx="21.8" cy="21.8" r="0.74" fill="rgba(236,235,230,.08)"/><circle cx="12" cy="2.2" r="0.9" fill="#a3a5aa"/><circle cx="9.55" cy="4.65" r="0.9" fill="#a3a5aa"/><circle cx="14.45" cy="4.65" r="0.9" fill="#a3a5aa"/><circle cx="7.1" cy="7.1" r="0.9" fill="#a3a5aa"/><circle cx="16.9" cy="7.1" r="0.9" fill="#a3a5aa"/><circle cx="4.65" cy="9.55" r="0.9" fill="#a3a5aa"/><circle cx="19.35" cy="9.55" r="0.9" fill="#a3a5aa"/><circle cx="2.2" cy="12" r="0.9" fill="#a3a5aa"/><circle cx="4.65" cy="12" r="0.9" fill="#a3a5aa"/><circle cx="19.35" cy="12" r="0.9" fill="#a3a5aa"/><circle cx="21.8" cy="12" r="0.9" fill="#a3a5aa"/><circle cx="4.65" cy="14.45" r="0.9" fill="#a3a5aa"/><circle cx="19.35" cy="14.45" r="0.9" fill="#a3a5aa"/><circle cx="4.65" cy="16.9" r="0.9" fill="#a3a5aa"/><circle cx="9.55" cy="16.9" r="0.9" fill="#a3a5aa"/><circle cx="12" cy="16.9" r="0.9" fill="#a3a5aa"/><circle cx="14.45" cy="16.9" r="0.9" fill="#a3a5aa"/><circle cx="19.35" cy="16.9" r="0.9" fill="#a3a5aa"/><circle cx="4.65" cy="19.35" r="0.9" fill="#a3a5aa"/><circle cx="9.55" cy="19.35" r="0.9" fill="#a3a5aa"/><circle cx="14.45" cy="19.35" r="0.9" fill="#a3a5aa"/><circle cx="19.35" cy="19.35" r="0.9" fill="#a3a5aa"/><circle cx="4.65" cy="21.8" r="0.9" fill="#a3a5aa"/><circle cx="7.1" cy="21.8" r="0.9" fill="#a3a5aa"/><circle cx="9.55" cy="21.8" r="0.9" fill="#a3a5aa"/><circle cx="14.45" cy="21.8" r="0.9" fill="#a3a5aa"/><circle cx="16.9" cy="21.8" r="0.9" fill="#a3a5aa"/><circle cx="19.35" cy="21.8" r="0.9" fill="#a3a5aa"/></svg>
