<svg xmlns="http://www.w3.org/2000/svg" viewBox="0 0 24 24" width="24" height="24"><defs><linearGradient id="home1m" gradientUnits="userSpaceOnUse" x1="3" y1="3" x2="21" y2="21"><stop offset="0" stop-color="#ffdabe"/><stop offset=".32" stop-color="#e3986a"/><stop offset=".64" stop-color="#b0633b"/><stop offset="1" stop-color="#7a3f22"/></linearGradient></defs><g fill="none" stroke-linecap="round" stroke-linejoin="round"><path d="M3.8 11.4L12 4.4L20.2 11.4M6.2 9.4V19.6H17.8V9.4M10.2 19.6V15.2Q10.2 13.8 11.6 13.8H12.4Q13.8 13.8 13.8 15.2V19.6" stroke="rgba(30,18,10,.32)" stroke-width="2.4" transform="translate(.5 .8)"/><path d="M3.8 11.4L12 4.4L20.2 11.4M6.2 9.4V19.6H17.8V9.4M10.2 19.6V15.2Q10.2 13.8 11.6 13.8H12.4Q13.8 13.8 13.8 15.2V19.6" stroke="url(#home1m)" stroke-width="2.15"/><path d="M3.8 11.4L12 4.4L20.2 11.4M6.2 9.4V19.6H17.8V9.4M10.2 19.6V15.2Q10.2 13.8 11.6 13.8H12.4Q13.8 13.8 13.8 15.2V19.6" stroke="rgba(255,244,232,.85)" stroke-width=".5" transform="translate(-.38 -.42)"/></g></svg>
